<svg xmlns="http://www.w3.org/2000/svg" width="72" height="80" viewBox="0 0 72 80" fill="none"><path d="M18.3921 16.9652H18.3928C18.7945 17.2828 19.246 17.527 19.7231 17.7027C19.8853 17.8271 20.0791 17.9133 20.2991 17.9133C20.3354 17.9133 20.3664 17.8965 20.4021 17.8924C20.7277 17.9611 21.0581 18.0082 21.3926 18.0082H54.9572C59.4123 18.0082 63.0358 14.384 63.0358 9.92956L63.0365 8.12687C63.0365 3.67175 59.4123 0.0482803 54.9579 0.0482803L53.4062 0.0476074H21.3919C20.9054 0.0476074 20.4249 0.133064 19.964 0.276385C19.9492 0.281768 19.9317 0.281768 19.9176 0.288497C19.3685 0.464786 18.8477 0.731254 18.3921 1.09193L9.33047 8.27237C9.09968 8.45606 8.96509 8.73397 8.96509 9.02869C8.96509 9.3234 9.09967 9.60131 9.33047 9.78501L18.3921 16.9652ZM54.3718 1.97729H54.9586C58.3493 1.97729 61.1081 4.7355 61.1081 8.12676V9.93013C61.1081 13.3216 58.3492 16.0796 54.9586 16.0796H54.3718V1.97729ZM21.2637 1.98806C21.3074 1.98604 21.3498 1.97729 21.3929 1.97729H46.1448V8.06354H31.669C31.1361 8.06354 30.7041 8.49486 30.7041 9.02846C30.7041 9.5614 31.1361 9.99339 31.669 9.99339H46.1448V16.0796H21.3929C21.3498 16.0796 21.3068 16.0709 21.2637 16.0689V1.98806ZM15.5354 5.81737L19.3346 2.8068V15.2485L15.5354 12.238V5.81737Z" fill="#2D5BF6"></path><path d="M25.6029 9.99223H26.6573C27.1902 9.99223 27.6222 9.56091 27.6222 9.0273C27.6222 8.49437 27.1902 8.06238 26.6573 8.06238L25.6029 8.06305C25.0699 8.06305 24.6379 8.49437 24.6379 9.02797C24.6379 9.56091 25.0699 9.99223 25.6029 9.99223V9.99223Z" fill="#C0CEFC"></path><path d="M58.6231 34.2341H47.5791C47.0461 34.2341 46.6141 34.6654 46.6141 35.1991C46.6141 35.732 47.0461 36.164 47.5791 36.164H58.6231C59.156 36.164 59.588 35.7327 59.588 35.1991C59.588 34.6661 59.156 34.2341 58.6231 34.2341Z" fill="#C0CEFC"></path><path d="M58.6231 42.8402H47.5791C47.0461 42.8402 46.6141 43.2715 46.6141 43.8051C46.6141 44.3381 47.0461 44.7701 47.5791 44.7701H58.6231C59.156 44.7701 59.588 44.3387 59.588 43.8051C59.588 43.2715 59.156 42.8402 58.6231 42.8402Z" fill="#C0CEFC"></path><path d="M54.1909 51.4463H47.5798C47.0469 51.4463 46.6149 51.8776 46.6149 52.4112C46.6149 52.9441 47.0469 53.3761 47.5798 53.3761H54.1909C54.7239 53.3761 55.1558 52.9448 55.1558 52.4112C55.1552 51.8776 54.7232 51.4463 54.1909 51.4463Z" fill="#C0CEFC"></path><path d="M58.6232 51.4463H58.2537C57.7208 51.4463 57.2888 51.8776 57.2888 52.4112C57.2888 52.9441 57.7208 53.3761 58.2537 53.3761H58.6232C59.1561 53.3761 59.5881 52.9448 59.5881 52.4112C59.5881 51.8776 59.1561 51.4463 58.6232 51.4463Z" fill="#C0CEFC"></path><path d="M24.4228 34.2341H13.3787C12.8458 34.2341 12.4138 34.6654 12.4138 35.1991C12.4138 35.732 12.8458 36.164 13.3787 36.164H24.4228C24.9557 36.164 25.3877 35.7327 25.3877 35.1991C25.387 34.6661 24.955 34.2341 24.4228 34.2341Z" fill="#C0CEFC"></path><path d="M24.4228 42.8402H13.3787C12.8458 42.8402 12.4138 43.2715 12.4138 43.8051C12.4138 44.3381 12.8458 44.7701 13.3787 44.7701H24.4228C24.9557 44.7701 25.3877 44.3387 25.3877 43.8051C25.387 43.2715 24.955 42.8402 24.4228 42.8402Z" fill="#C0CEFC"></path><path d="M24.4228 51.4463H13.3787C12.8458 51.4463 12.4138 51.8776 12.4138 52.4112C12.4138 52.9441 12.8458 53.3761 13.3787 53.3761H24.4228C24.9557 53.3761 25.3877 52.9448 25.3877 52.4112C25.387 51.8776 24.955 51.4463 24.4228 51.4463Z" fill="#C0CEFC"></path><path d="M70.8776 64.9755C70.8884 64.9647 70.8945 64.9506 70.9052 64.9398C70.9725 64.8665 71.0264 64.7857 71.0681 64.6989C71.0829 64.668 71.0916 64.6363 71.1031 64.604C71.132 64.5219 71.1488 64.4378 71.1542 64.3503C71.1556 64.3288 71.1663 64.3113 71.1663 64.2898L71.1656 25.6142C71.1656 23.8169 69.7028 22.3541 67.9055 22.3541L41.3862 22.3534C39.114 22.3534 37.1228 23.5565 35.9997 25.3559C34.8773 23.5566 32.8856 22.3534 30.6132 22.3534H4.09391C2.29587 22.3534 0.83374 23.8163 0.83374 25.6136V64.2891C0.83374 64.3106 0.844506 64.3288 0.845852 64.3497C0.851235 64.4365 0.86806 64.5206 0.896994 64.6034C0.908433 64.6357 0.917179 64.6673 0.931982 64.6982C0.973027 64.7857 1.02686 64.8665 1.09482 64.9391C1.10491 64.9506 1.11164 64.964 1.12241 64.9748C1.12376 64.9761 1.12443 64.9782 1.12578 64.9795C2.83019 66.6415 3.7696 68.8634 3.7696 71.2366C3.7696 73.6086 2.83093 75.8311 1.12646 77.4924C0.844528 77.7662 0.757055 78.1834 0.905077 78.5468C1.05311 78.9108 1.40638 79.1484 1.79867 79.1484H70.2009C70.5932 79.1484 70.9465 78.9108 71.0945 78.5475C71.2426 78.1841 71.1551 77.7662 70.8738 77.493C69.1694 75.831 68.2307 73.6091 68.2307 71.2373C68.2307 68.8641 69.17 66.6421 70.8745 64.9802C70.8759 64.9788 70.8765 64.9768 70.8779 64.9755H70.8776ZM35.0358 63.3249H2.76478V25.6157C2.76478 24.8816 3.36232 24.2847 4.09576 24.2847H30.615C33.0535 24.2847 35.0365 26.2685 35.0365 28.7063L35.0358 63.3249ZM69.2377 63.3249H36.9668V28.706C36.9668 26.2682 38.9498 24.2845 41.3883 24.2845H67.9076C68.6417 24.2845 69.2385 24.882 69.2385 25.6155L69.2377 63.3249Z" fill="#2D5BF6"></path></svg>